<svg fill="none" height="56" viewBox="0 0 56 56" width="56" xmlns="http://www.w3.org/2000/svg"><path d="m10.2014 16.949c.0285-.284-.0097-.5708-.1118-.8374-.10215-.2666-.26523-.5056-.47625-.6979l-4.35866-5.2897v-.79099h13.52871l10.458 23.11169 9.1933-23.11169h12.8987v.79099l-3.7264 3.5957c-.1579.1219-.2797.2844-.3524.4701-.0728.1858-.0937.3878-.0606.5845v26.446c-.0331.1968-.0122.3988.0606.5845.0727.1858.1945.3483.3524.4702l3.64 3.598v.7933h-18.3026v-.791l3.7706-3.6866c.371-.3734.371-.483.371-1.0524v-21.378l-10.4813 26.8194h-1.414l-12.2033-26.8194v17.976c-.1004.7537.1493 1.5167.6766 2.0627l4.9024 5.992v.7887h-13.89971v-.7887l4.9-5.992c.25926-.2705.45171-.5979.56191-.9561.1102-.3581.1351-.7371.0728-1.1066z" fill="#272727"/></svg>