<svg fill="none" height="24" viewBox="0 0 24 24" width="24" xmlns="http://www.w3.org/2000/svg"><path d="m4.372 7.264c.01225-.12174-.00416-.24465-.04792-.35891-.04375-.11425-.11365-.21668-.20408-.29909l-1.868-2.267v-.339h5.798l4.482 9.905 3.94-9.905h5.528v.339l-1.597 1.541c-.0677.05225-.1199.12189-.1511.2015-.0311.07961-.0401.16619-.0259.2505v11.334c-.0142.0843-.0052.1709.0259.2505.0312.0796.0834.1493.1511.2015l1.56 1.542v.34h-7.844v-.339l1.616-1.58c.159-.16.159-.207.159-.451v-9.162l-4.492 11.494h-.606l-5.23-11.494v7.704c-.043.323.064.65.29.884l2.101 2.568v.338h-5.957v-.338l2.1-2.568c.11111-.1159.19358-.2563.2408-.4098.04723-.1534.05791-.3158.0312-.4742z" fill="#fff"/></svg>