<svg fill="none" height="56" viewBox="0 0 56 56" width="56" xmlns="http://www.w3.org/2000/svg"><path clip-rule="evenodd" d="m49 14.1435c-1.5439.7037-3.2055 1.178-4.9489 1.3914 1.7792-1.0938 3.1443-2.8244 3.7879-4.8885-1.6641 1.0128-3.5096 1.7481-5.4718 2.1442-1.5722-1.7173-3.8106-2.7906-6.2885-2.7906-4.7588 0-8.6171 3.956-8.6171 8.8355 0 .6932.0765 1.3663.2232 2.0143-7.1624-.3686-13.5101-3.8873-17.75984-9.2327-.7414 1.3039-1.16661 2.8235-1.16661 4.4425 0 3.0651 1.52115 5.77 3.83295 7.3546-1.4122-.0453-2.742-.4437-3.90319-1.106-.00062.0372-.00062.0744-.00062.1116 0 4.2829 2.96931 7.8518 6.91171 8.6645-.7247.2009-1.4847.3093-2.2705.3093-.5557 0-1.0955-.0562-1.621-.159 1.0964 3.5108 4.2785 6.0675 8.0483 6.1374-2.9491 2.3685-6.6641 3.7812-10.70083 3.7812-.69618 0-1.38172-.0402-2.05517-.1229 3.8131 2.507 8.3434 3.9697 13.2087 3.9697 15.8475 0 24.5142-13.4642 24.5142-25.1412 0-.3829-.0104-.7644-.026-1.143 1.6885-1.2443 3.1469-2.8005 4.3031-4.5723z" fill="#272727" fill-rule="evenodd"/></svg>