<svg fill="none" height="24" viewBox="0 0 24 24" width="24" xmlns="http://www.w3.org/2000/svg"><path clip-rule="evenodd" d="m21 6.06192c-.6617.30158-1.3738.50487-2.1209.59629.7625-.46877 1.3475-1.21045 1.6233-2.09505-.7132.43406-1.5041.7492-2.345.91895-.6738-.736-1.6331-1.19598-2.6951-1.19598-2.0395 0-3.693 1.69545-3.693 3.78665 0 .29709.0327.58557.0956.86325-3.06958-.15794-5.79001-1.66595-7.61134-3.95686-.31775.55883-.49998 1.21009-.49998 1.90395 0 1.31361.65192 2.47285 1.64267 3.15198-.6052-.0194-1.17512-.1902-1.67277-.47401-.00027.01594-.00027.03188-.00027.04782 0 1.83549 1.27258 3.36509 2.96215 3.71339-.31059.0861-.63629.1325-.97306.1325-.23815 0-.46951-.0241-.69471-.0681.46987 1.5046 1.83366 2.6003 3.44926 2.6303-1.26391 1.015-2.85603 1.6205-4.58606 1.6205-.29836 0-.59217-.0172-.88079-.0527 1.63419 1.0744 3.57576 1.7013 5.66088 1.7013 6.79182 0 10.50612-5.7704 10.50612-10.77478 0-.16408-.0045-.3276-.0112-.48984.7237-.53327 1.3487-1.2002 1.8442-1.95956z" fill="#fff" fill-rule="evenodd"/></svg>