<svg fill="none" height="40" viewBox="0 0 210 40" width="210" xmlns="http://www.w3.org/2000/svg"><g fill="#252d29"><path d="m49.7523 15.1595v9.8061c0 .9506.1924 1.651.6252 2.2014.4328.5003 1.058.7505 1.8755.7505.6251 0 1.2022-.1501 1.7312-.4503s1.058-.7005 1.5388-1.2008v-11.157h3.5586v15.4097h-2.164c-.4809 0-.7694-.2502-.9137-.6504l-.2404-1.2508c-.2885.3002-.6252.6004-.9618.9005-.3366.2502-.6732.5004-1.058.6505-.3847.2001-.7694.3502-1.2022.4502-.4328.1001-.8656.1501-1.3946.1501-.8175 0-1.5388-.1501-2.164-.4502-.6251-.3002-1.1541-.7005-1.5869-1.2008s-.7214-1.1507-.9618-1.8512c-.1924-.7004-.3366-1.5009-.3366-2.3514v-9.8062h3.6547z"/><path d="m62.8807 30.5691v-15.4096h2.164c.4809 0 .7694.2501.9137.7004l.2404 1.2008c.2886-.3002.6252-.6004.9618-.8506.3367-.2501.6733-.5003 1.058-.6504.3847-.2001.7694-.3502 1.2022-.4503.4328-.1.8656-.15 1.3946-.15.8175 0 1.5389.15 2.164.4502.6252.3002 1.1542.7005 1.587 1.2008s.7213 1.1507.9617 1.8511c.2405.7005.3367 1.501.3367 2.3515v9.8061h-3.5586v-9.8061c0-.9506-.1924-1.651-.6252-2.2014-.4328-.5003-1.058-.7504-1.8755-.7504-.6251 0-1.2022.1501-1.7312.4502-.529.3002-1.0579.7005-1.5388 1.2008v11.157h-3.6548z"/><path d="m83.6071 10.7067c0 .3002-.0481.6004-.1923.9006-.1443.3001-.2886.5003-.4809.7504-.1924.2001-.4328.4003-.7214.5003-.2885.1001-.577.2002-.9137.2002-.2885 0-.577-.0501-.8656-.2002-.2885-.1-.5289-.3002-.7213-.5003s-.3847-.4503-.4809-.7504c-.1443-.3002-.1923-.6004-.1923-.9006 0-.3502.048-.6504.1923-.9506.0962-.30019.2885-.55035.4809-.75047.1924-.20013.4328-.40025.7213-.50031.2886-.10007.5771-.20013.8656-.20013.3367 0 .6252.05003.9137.20013.2886.15009.529.30018.7214.50031.1923.20012.3847.45028.4809.75047.1442.3002.1923.6004.1923.9506zm-.529 4.4528v15.4096h-3.5586v-15.4096z"/><path d="m87.7428 30.5691v-12.6079l-1.2984-.2001c-.2885-.05-.4809-.1501-.6733-.3002-.1923-.1501-.2404-.3502-.2404-.6504v-1.5009h2.2121v-.5003c0-.9506.1443-1.8012.4328-2.6017s.7694-1.5009 1.3465-2.1013c.6252-.60036 1.3946-1.05064 2.3083-1.40086s2.0197-.50031 3.27-.50031c.3848 0 .8176 0 1.2504.05003s.7694.10006 1.106.20012l-.0962 1.90122c0 .2501-.1442.3502-.3847.4002-.2404.0501-.4809.0501-.8175.0501-.9137 0-1.7312.1-2.3564.2501-.6251.1501-1.1541.4003-1.5388.7505s-.6733.7504-.8175 1.2508c-.1924.5003-.2405 1.1006-.2405 1.7511v.4002h9.1848v15.2595h-3.5583v-12.6078h-5.5303v12.6078h-3.5586z"/><path d="m117.05 31.0497c-1.961 0-3.483-.7058-4.566-2.1174h-.196c.131 1.3087.196 2.1034.196 2.3838v6.3522h-3.291v-22.4079h2.661c.075.2898.229.9816.462 2.0753h.168c1.027-1.5705 2.568-2.3557 4.622-2.3557 1.933 0 3.438.7011 4.517 2.1033 1.078 1.4023 1.617 3.3701 1.617 5.9035s-.548 4.5105-1.645 5.9315c-1.098 1.4209-2.612 2.1314-4.545 2.1314zm-.799-13.3774c-1.307 0-2.261.3833-2.864 1.1498-.602.7666-.903 1.9912-.903 3.6739v.4908c0 1.8883.299 3.2555.896 4.1015.598.8461 1.574 1.2691 2.928 1.2691 1.139 0 2.016-.4674 2.633-1.4023.616-.9348.924-2.2669.924-3.9964 0-1.7388-.306-3.0545-.917-3.9473-.612-.8927-1.511-1.3391-2.697-1.3391z"/><path d="m133.282 14.98c.662 0 1.209.0467 1.638.1402l-.322 3.0709c-.467-.1122-.952-.1683-1.456-.1683-1.317 0-2.384.4301-3.201 1.2901s-1.225 1.9772-1.225 3.3514v8.1049h-3.291v-15.5088h2.577l.434 2.7344h.168c.513-.9255 1.183-1.6593 2.01-2.2015.826-.5422 1.715-.8133 2.668-.8133z"/><path d="m149.892 22.9868c0 2.5334-.649 4.5105-1.947 5.9315-1.298 1.4209-3.105 2.1314-5.42 2.1314-1.448 0-2.727-.3272-3.838-.9816s-1.965-1.5939-2.563-2.8185c-.597-1.2246-.896-2.6456-.896-4.2628 0-2.5147.644-4.4779 1.933-5.8894 1.288-1.4116 3.104-2.1174 5.448-2.1174 2.241 0 4.015.7221 5.322 2.1664s1.961 3.3911 1.961 5.8404zm-11.275 0c0 3.5804 1.321 5.3706 3.964 5.3706 2.614 0 3.921-1.7902 3.921-5.3706 0-3.543-1.316-5.3145-3.949-5.3145-1.382 0-2.384.458-3.004 1.3742-.621.9161-.932 2.2295-.932 3.9403z"/><path d="m157.804 28.3854c.803 0 1.606-.1262 2.409-.3786v2.482c-.364.1589-.833.2921-1.407.3996-.575.1075-1.17.1613-1.786.1613-3.119 0-4.678-1.6453-4.678-4.9359v-8.3574h-2.115v-1.4583l2.269-1.206 1.121-3.2812h2.03v3.4495h4.412v2.496h-4.412v8.3013c0 .7946.199 1.3812.596 1.7598.396.3786.917.5679 1.561.5679z"/><path d="m175.408 22.9868c0 2.5334-.649 4.5105-1.946 5.9315-1.298 1.4209-3.105 2.1314-5.42 2.1314-1.448 0-2.727-.3272-3.838-.9816s-1.965-1.5939-2.563-2.8185c-.597-1.2246-.896-2.6456-.896-4.2628 0-2.5147.644-4.4779 1.933-5.8894 1.288-1.4116 3.104-2.1174 5.448-2.1174 2.24 0 4.015.7221 5.322 2.1664s1.96 3.3911 1.96 5.8404zm-11.274 0c0 3.5804 1.321 5.3706 3.964 5.3706 2.614 0 3.921-1.7902 3.921-5.3706 0-3.543-1.316-5.3145-3.949-5.3145-1.382 0-2.384.458-3.005 1.3742-.62.9161-.931 2.2295-.931 3.9403z"/><path d="m183.797 31.0497c-2.343 0-4.124-.6848-5.343-2.0543-1.218-1.3695-1.828-3.335-1.828-5.8964 0-2.6082.638-4.6134 1.912-6.0157 1.275-1.4022 3.116-2.1033 5.525-2.1033 1.634 0 3.105.3038 4.412.9114l-.994 2.6503c-1.392-.5422-2.54-.8133-3.446-.8133-2.679 0-4.019 1.7808-4.019 5.3425 0 1.7388.334 3.0452 1.001 3.9193.668.874 1.646 1.3111 2.934 1.3111 1.466 0 2.853-.3646 4.16-1.0938v2.8746c-.588.3459-1.216.5936-1.884.7432-.667.1496-1.477.2244-2.43.2244z"/><path d="m203.852 22.9868c0 2.5334-.648 4.5105-1.946 5.9315-1.298 1.4209-3.105 2.1314-5.42 2.1314-1.448 0-2.727-.3272-3.838-.9816s-1.965-1.5939-2.563-2.8185c-.597-1.2246-.896-2.6456-.896-4.2628 0-2.5147.644-4.4779 1.933-5.8894 1.288-1.4116 3.104-2.1174 5.448-2.1174 2.241 0 4.015.7221 5.322 2.1664s1.96 3.3911 1.96 5.8404zm-11.274 0c0 3.5804 1.321 5.3706 3.964 5.3706 2.614 0 3.921-1.7902 3.921-5.3706 0-3.543-1.316-5.3145-3.949-5.3145-1.382 0-2.384.458-3.004 1.3742-.621.9161-.932 2.2295-.932 3.9403z"/><path d="m209.286 30.7692h-3.291v-21.81888h3.291z"/><path d="m23.893 40h-6.9906-6.99048l-9.91192-9.924v-6.9991-6.999l9.91192-9.92405h6.99048 6.9906l9.9119 9.92405v6.999 6.9991zm-7.0427-4.1785h5.2689l7.5122-7.4692v-5.2754-5.2754l-7.46-7.5213h-5.269-5.2689l-7.51223 7.5213v5.2754 5.2754l7.46003 7.4692z"/></g><path d="m29.0149 33.8462h-6.9905-6.9905l-9.91195-9.9241v-6.999-6.99907l9.91195-9.92403h6.9905 6.9905l9.9119 9.92403v6.99907 6.999zm-6.9905-4.1786h5.269l7.46-7.4691v-5.2754-5.2754l-7.46-7.52139h-5.269-5.269l-7.51217 7.46909v5.2754 5.2754l7.46007 7.4692z" fill="#38f997"/></svg>