<svg fill="none" height="56" viewBox="0 0 56 56" width="56" xmlns="http://www.w3.org/2000/svg"><path d="m28.153 11.1396h.267c2.466.009 14.961.099 18.33 1.005 1.0185.2766 1.9466.8155 2.6915 1.5631.7449.7475 1.2806 1.6775 1.5535 2.6969.303 1.14.516 2.649.66 4.206l.03.312.066.78.024.312c.195 2.742.219 5.31.222 5.871v.225c-.003.582-.03 3.324-.246 6.18l-.024.315-.027.3121c-.15 1.716-.372 3.42-.705 4.674-.2721 1.0198-.8075 1.9502-1.5525 2.6979-.7451.7477-1.6736 1.2864-2.6925 1.5621-3.48.936-16.707 1.002-18.54 1.005h-.426c-.927 0-4.761-.018-8.781-.156l-.51-.018-.261-.012-.513-.021-.513-.021c-3.33-.147-6.501-.384-7.962-.78-1.01853-.2755-1.9468-.8137-2.69183-1.5608-.74502-.7472-1.28063-1.6769-1.55317-2.6962-.333-1.251-.555-2.958-.705-4.674l-.024-.3151-.024-.312c-.14806-2.0328-.2301-4.0698-.246-6.108v-.3689c.006-.6451.03-2.8741.192-5.3341l.021-.309.009-.156.024-.312.066-.78.03-.312c.144-1.557.357-3.069.66-4.206.27208-1.0198.80749-1.9502 1.55254-2.6979s1.67357-1.2864 2.69246-1.5621c1.461-.39 4.632-.63 7.962-.78l.51-.021.516-.018.258-.009.513-.021c2.8551-.0918 5.7114-.1428 8.568-.153h.579zm-4.953 9.63v14.4541l12.471-7.2241z" fill="#272727"/></svg>