<svg fill="none" height="24" viewBox="0 0 24 24" width="24" xmlns="http://www.w3.org/2000/svg"><path d="m12.0655 4.77441h.1144c1.0569.00386 6.4119.04243 7.8558.43072.4365.1185.8342.34948 1.1535.66987.3192.32038.5488.71894.6657 1.15584.1299.48857.2212 1.13529.2829 1.80257l.0129.13372.0282.33428.0103.13372c.0836 1.17517.0939 2.27567.0952 2.51617v.0964c-.0013.2494-.0129 1.4246-.1055 2.6486l-.0102.135-.0116.1337c-.0643.7354-.1594 1.4657-.3022 2.0031-.1166.4371-.346.8359-.6653 1.1563s-.7173.5513-1.1539.6694c-1.4915.4012-7.1602.4295-7.9458.4308h-.1825c-.3973 0-2.04045-.0078-3.76331-.0669l-.21857-.0077-.11186-.0052-.21986-.009-.21985-.009c-1.42715-.063-2.78615-.1645-3.41229-.3342-.43651-.1181-.83434-.3487-1.15364-.6689-.31929-.3202-.54884-.7187-.66564-1.1556-.14272-.5361-.23786-1.2677-.30215-2.0031l-.01028-.135-.01029-.1337c-.06345-.8712-.09861-1.7443-.10543-2.6177v-.1582c.00257-.2764.01286-1.2317.08229-2.28599l.009-.13242.00386-.06686.01028-.13372.02829-.33428.01285-.13372c.06172-.66728.153-1.31528.28286-1.80257.11661-.43708.34607-.83583.66538-1.15626.3193-.32044.71724-.5513 1.15391-.66945.62614-.16714 1.98514-.27 3.41228-.33429l.21857-.009.22115-.00771.11057-.00386.21986-.009c1.22362-.03937 2.44772-.06123 3.67202-.06557h.2481zm-2.12269 4.12715v6.19454l5.34469-3.096z" fill="#fff"/></svg>