<svg width="96" height="96" viewBox="0 0 96 96" fill="none" xmlns="http://www.w3.org/2000/svg">
<g clip-path="url(#clip0_150_1882)">
<path fill-rule="evenodd" clip-rule="evenodd" d="M40.2366 86H53.0434L71.3 67.8703V55.0635V42.2592L53.1679 24H40.3635H27.5567L9.30005 42.2592V55.0635V67.8703L27.4298 86H40.2366ZM57.2567 96H40.3H23.3434L-0.699951 71.9566V55V38.0434L23.3434 14H40.3H57.2567L81.3 38.0434V55V71.9566L57.2567 96Z" fill="#252D29"/>
<path fill-rule="evenodd" clip-rule="evenodd" d="M52.3635 71H65.1703L83.3 52.8703V40.0635V27.2592L65.1703 9H52.3635H39.5567L21.3 27.1322V39.9365V52.7433L39.4322 70.873L52.3635 71ZM69.2567 82H52.3H35.3434L11.3 57.9566V41V24.0434L35.3434 0H52.3H69.2567L93.3 24.0434V41V57.9566L69.2567 82Z" fill="#38F997"/>
</g>
<defs>
<clipPath id="clip0_150_1882">
<rect width="96" height="96" fill="white"/>
</clipPath>
</defs>
</svg>
